<?xml version="1.0" encoding="UTF-8"?>
<svg xmlns="http://www.w3.org/2000/svg" version="1.1" viewBox="0 0 251 202">
  <defs>
    <style>
      .cls-1 {
        fill: #ac1f25;
        stroke: #ac1f25;
      }

      .cls-1, .cls-2 {
        stroke-linecap: round;
        stroke-linejoin: round;
      }

      .cls-2 {
        stroke: #193c55;
      }

      .cls-2, .cls-3 {
        fill: #193c55;
      }
    </style>
  </defs>
  <!-- Generator: Adobe Illustrator 28.7.8, SVG Export Plug-In . SVG Version: 1.2.0 Build 200)  -->
  <g>
    <g id="Layer_1">
      <g>
        <path class="cls-3" d="M161,90v-1.6h1.6v1.6h-1.6Z"/>
        <path class="cls-3" d="M170.4,88.9c-.5.4-1,.8-1.5.9s-1,.3-1.6.3c-.9,0-1.6-.2-2.1-.7s-.7-1-.7-1.7,0-.8.3-1.1c.2-.3.4-.6.7-.8s.6-.4,1-.5c.3,0,.7-.1,1.2-.2,1.1-.1,2-.3,2.5-.5,0-.2,0-.3,0-.4,0-.6-.1-1-.4-1.2-.4-.3-.9-.5-1.6-.5s-1.1.1-1.5.3c-.3.2-.6.6-.7,1.2l-1.4-.2c.1-.6.3-1.1.6-1.4.3-.4.7-.6,1.2-.8.5-.2,1.2-.3,1.9-.3s1.3,0,1.7.2c.4.2.8.4,1,.6.2.2.4.6.4,1,0,.2,0,.7,0,1.3v1.9c0,1.3,0,2.1,0,2.5,0,.3.2.7.4,1h-1.5c-.2-.3-.3-.6-.3-1ZM170.3,85.8c-.5.2-1.3.4-2.3.5-.6,0-1,.2-1.2.3-.2,0-.4.3-.6.5s-.2.4-.2.7c0,.4.1.7.4.9.3.2.7.4,1.2.4s1-.1,1.4-.4c.4-.2.7-.6.9-1,.1-.3.2-.8.2-1.4v-.5h0Z"/>
        <path class="cls-3" d="M173.9,90v-8.3h1.3v1.3c.3-.6.6-1,.9-1.2s.6-.3.9-.3c.5,0,1,.2,1.4.4l-.5,1.3c-.3-.2-.7-.3-1-.3s-.6,0-.8.3-.4.4-.5.8c-.2.5-.2,1.1-.2,1.6v4.3h-1.4Z"/>
        <path class="cls-3" d="M179.2,90v-8.3h1.3v1.3c.3-.6.6-1,.9-1.2s.6-.3.9-.3c.5,0,1,.2,1.4.4l-.5,1.3c-.3-.2-.7-.3-1-.3s-.6,0-.8.3-.4.4-.5.8c-.2.5-.2,1.1-.2,1.6v4.3h-1.4Z"/>
        <path class="cls-3" d="M184.1,85.8c0-1.5.4-2.7,1.3-3.4.7-.6,1.6-.9,2.6-.9s2.1.4,2.8,1.1c.7.8,1.1,1.8,1.1,3.1s-.2,1.9-.5,2.5c-.3.6-.8,1.1-1.4,1.4-.6.3-1.3.5-2,.5-1.2,0-2.1-.4-2.8-1.1-.7-.7-1.1-1.8-1.1-3.2ZM185.5,85.8c0,1.1.2,1.9.7,2.4.5.5,1.1.8,1.8.8s1.3-.3,1.7-.8c.5-.5.7-1.3.7-2.4s-.2-1.8-.7-2.3-1.1-.8-1.7-.8-1.3.3-1.8.8c-.5.5-.7,1.3-.7,2.4Z"/>
        <path class="cls-3" d="M195,90l-2.5-8.3h1.4l1.3,4.8.5,1.8c0,0,.2-.7.4-1.7l1.3-4.9h1.4l1.2,4.8.4,1.6.5-1.6,1.4-4.8h1.4l-2.6,8.3h-1.5l-1.3-5-.3-1.4-1.7,6.4s-1.5,0-1.5,0Z"/>
      </g>
      <g>
        <path class="cls-3" d="M60.3,92v-1.6h1.6v1.6h-1.6Z"/>
        <path class="cls-3" d="M64.3,92v-8.3h1.3v1.3c.3-.6.6-1,.9-1.2s.6-.3.9-.3c.5,0,1,.2,1.4.4l-.5,1.3c-.3-.2-.7-.3-1-.3s-.6,0-.8.3-.4.4-.5.8c-.2.5-.2,1.1-.2,1.6v4.3h-1.4Z"/>
        <path class="cls-3" d="M75,90.9c-.5.4-1,.8-1.5.9s-1,.3-1.6.3c-.9,0-1.6-.2-2.1-.7s-.7-1-.7-1.7,0-.8.3-1.1.4-.6.7-.8.6-.4,1-.5c.3,0,.7-.1,1.2-.2,1.1-.1,2-.3,2.5-.5,0-.2,0-.3,0-.4,0-.6-.1-1-.4-1.2-.4-.3-.9-.5-1.6-.5s-1.2.1-1.5.3c-.3.2-.6.6-.7,1.2l-1.4-.2c.1-.6.3-1.1.6-1.4.3-.4.7-.6,1.2-.8s1.2-.3,1.9-.3,1.3,0,1.7.2c.4.2.8.4,1,.6.2.2.3.6.4,1,0,.2,0,.7,0,1.3v1.9c0,1.3,0,2.1,0,2.5,0,.3.2.7.4,1h-1.5c-.2-.3-.3-.6-.3-1ZM74.9,87.8c-.5.2-1.3.4-2.3.5-.6,0-1,.2-1.2.3-.2,0-.4.3-.6.5-.1.2-.2.4-.2.7,0,.4.1.7.4.9s.7.4,1.2.4,1-.1,1.4-.4c.4-.2.7-.6.9-1,.2-.3.2-.8.2-1.4v-.5h0Z"/>
        <path class="cls-3" d="M80.1,92l-2.5-8.3h1.4l1.3,4.8.5,1.8c0,0,.2-.7.4-1.7l1.3-4.9h1.4l1.2,4.8.4,1.6.5-1.6,1.4-4.8h1.4l-2.6,8.3h-1.5l-1.3-5-.3-1.4-1.7,6.4s-1.5,0-1.5,0Z"/>
      </g>
      <g>
        <path class="cls-3" d="M54,136.2h-6.4v9.7c0,1.4-.3,2.4-1,3.2s-1.5,1.1-2.5,1.1-1.9-.4-2.5-1.1-1-1.8-1-3.1v-26.5c0-1.5.3-2.6,1-3.3s1.8-1,3.3-1h8.9c2.6,0,4.7.2,6.1.6,1.4.4,2.6,1,3.6,1.9,1,.9,1.8,2,2.3,3.3s.8,2.8.8,4.4c0,3.5-1.1,6.1-3.2,8s-5.4,2.7-9.6,2.7ZM52.4,120.4h-4.7v10.5h4.7c1.6,0,3-.2,4.1-.5s1.9-.9,2.5-1.7.9-1.8.9-3.1-.5-2.8-1.3-3.7c-1-1-3-1.5-6.2-1.5Z"/>
        <path class="cls-3" d="M75.5,121.2c-.9,0-1.7-.3-2.3-.8s-.9-1.3-.9-2.3.3-1.7,1-2.2,1.4-.9,2.3-.9,1.6.3,2.2.8,1,1.3,1,2.3-.3,1.8-.9,2.3-1.3.8-2.2.8ZM78.7,127.8v18.5c0,1.3-.3,2.2-.9,2.9s-1.4,1-2.3,1-1.7-.3-2.3-1-.9-1.6-.9-2.9v-18.3c0-1.3.3-2.2.9-2.9s1.3-1,2.3-1,1.7.3,2.3,1,.9,1.5.9,2.7Z"/>
        <path class="cls-3" d="M109.2,137.2c0,1.9-.3,3.7-.9,5.3s-1.4,3-2.6,4.1-2.5,2-4,2.7-3.3.9-5.3.9-3.7-.3-5.2-.9-2.9-1.5-4-2.7-2-2.5-2.6-4.1-.9-3.3-.9-5.3.3-3.7.9-5.3,1.4-3,2.6-4.1,2.4-2,4-2.6,3.3-.9,5.2-.9,3.7.3,5.3.9,2.9,1.5,4.1,2.7c1.1,1.2,2,2.5,2.6,4.1s.9,3.4.9,5.3ZM102.8,137.2c0-2.6-.6-4.6-1.7-6.1s-2.7-2.2-4.6-2.2-2.3.3-3.3,1-1.7,1.6-2.2,2.9-.8,2.7-.8,4.4.2,3.1.8,4.4,1.2,2.2,2.2,2.9,2.1,1,3.3,1c1.9,0,3.5-.7,4.6-2.2s1.7-3.5,1.7-6.1Z"/>
        <path class="cls-3" d="M120.1,127.7v.8c1.1-1.5,2.4-2.6,3.7-3.3s2.9-1,4.6-1,3.2.4,4.5,1.1,2.3,1.8,3,3.1c.4.8.7,1.6.8,2.5s.2,2.1.2,3.5v11.9c0,1.3-.3,2.2-.9,2.9s-1.4,1-2.3,1-1.7-.3-2.3-1-.9-1.6-.9-2.9v-10.7c0-2.1-.3-3.7-.9-4.8s-1.8-1.7-3.5-1.7-2.2.3-3.1,1-1.6,1.6-2.1,2.8c-.3.9-.5,2.7-.5,5.3v8c0,1.3-.3,2.3-.9,2.9s-1.4,1-2.3,1-1.7-.3-2.3-1-.9-1.6-.9-2.9v-18.5c0-1.2.3-2.1.8-2.7s1.3-.9,2.2-.9,1.1.1,1.5.4.8.7,1.1,1.2.4,1.2.4,1.9Z"/>
        <path class="cls-3" d="M161.1,138.7h-12.5c0,1.4.3,2.7.9,3.8s1.3,1.9,2.3,2.5,2,.8,3.1.8,1.5,0,2.1-.3,1.2-.5,1.8-.8,1.1-.8,1.6-1.2,1.1-1,1.9-1.8c.3-.3.8-.4,1.4-.4s1.2.2,1.6.5.6.9.6,1.5-.2,1.2-.7,2-1.1,1.5-2.1,2.2-2.1,1.3-3.4,1.8-3,.7-4.8.7c-4.1,0-7.3-1.2-9.6-3.5s-3.4-5.5-3.4-9.5.3-3.6.8-5.3,1.4-3,2.5-4.2,2.4-2,4-2.7,3.3-.9,5.2-.9,4.6.5,6.4,1.6,3.1,2.4,4,4.1,1.3,3.4,1.3,5.1-.5,2.6-1.4,3.1-2.2.7-3.9.7ZM148.6,135.1h11.6c-.2-2.2-.8-3.8-1.8-4.9s-2.4-1.6-4-1.6-2.9.6-3.9,1.6-1.6,2.7-1.9,4.9Z"/>
        <path class="cls-3" d="M189.7,138.7h-12.5c0,1.4.3,2.7.9,3.8s1.3,1.9,2.3,2.5,2,.8,3.1.8,1.5,0,2.1-.3,1.2-.5,1.8-.8,1.1-.8,1.6-1.2,1.1-1,1.9-1.8c.3-.3.8-.4,1.4-.4s1.2.2,1.6.5.6.9.6,1.5-.2,1.2-.7,2-1.1,1.5-2.1,2.2-2.1,1.3-3.4,1.8-3,.7-4.8.7c-4.1,0-7.3-1.2-9.6-3.5s-3.4-5.5-3.4-9.5.3-3.6.8-5.3,1.4-3,2.5-4.2,2.4-2,4-2.7,3.3-.9,5.2-.9,4.6.5,6.4,1.6,3.1,2.4,4,4.1,1.3,3.4,1.3,5.1-.5,2.6-1.4,3.1-2.2.7-3.9.7ZM177.1,135.1h11.6c-.2-2.2-.8-3.8-1.8-4.9s-2.4-1.6-4-1.6-2.9.6-3.9,1.6-1.6,2.7-1.9,4.9Z"/>
        <path class="cls-3" d="M206.7,140.9v5.3c0,1.3-.3,2.3-.9,2.9s-1.4,1-2.3,1-1.7-.3-2.3-1-.9-1.6-.9-2.9v-17.8c0-2.9,1-4.3,3.1-4.3s1.8.3,2.3,1,.7,1.7.8,3c.8-1.3,1.6-2.3,2.4-3s1.9-1,3.2-1,2.6.3,3.9,1,1.9,1.6,1.9,2.7-.3,1.4-.8,1.9-1.1.8-1.8.8-.8-.1-1.7-.4-1.7-.4-2.4-.4-1.7.2-2.3.7-1.1,1.2-1.4,2.2-.6,2.1-.7,3.5-.2,3-.2,4.9Z"/>
        <path class="cls-3" d="M43,180.7c0,1.1-.3,2.3-.8,3.6s-1.4,2.5-2.5,3.8-2.6,2.2-4.4,3-3.9,1.1-6.3,1.1-3.5-.2-4.9-.5-2.8-.9-4-1.6-2.3-1.7-3.3-2.9c-.9-1.1-1.7-2.3-2.3-3.6s-1.1-2.8-1.4-4.3-.5-3.1-.5-4.8c0-2.8.4-5.2,1.2-7.4s2-4.1,3.5-5.6,3.3-2.7,5.3-3.6,4.2-1.2,6.5-1.2,5.3.6,7.4,1.7,3.8,2.5,5,4.1,1.7,3.2,1.7,4.6-.3,1.5-.8,2.1-1.2.9-2,.9-1.6-.2-2-.6-.9-1.1-1.5-2.2c-.9-1.7-2-3-3.2-3.8s-2.7-1.3-4.5-1.3c-2.9,0-5.1,1.1-6.8,3.3s-2.5,5.3-2.5,9.3.4,4.9,1.1,6.7,1.8,3.1,3.2,4,3,1.3,4.8,1.3,3.7-.5,5.1-1.5,2.4-2.4,3.1-4.4c.3-.9.7-1.6,1.1-2.2s1.1-.9,2.1-.9,1.5.3,2.1.9.9,1.3.9,2.2Z"/>
        <path class="cls-3" d="M72.8,179.2c0,1.9-.3,3.7-.9,5.3s-1.4,3-2.6,4.1-2.5,2-4,2.7-3.3.9-5.3.9-3.7-.3-5.2-.9-2.9-1.5-4-2.7-2-2.5-2.6-4.1-.9-3.3-.9-5.3.3-3.7.9-5.3,1.5-3,2.5-4.1,2.5-2,4-2.6,3.3-.9,5.2-.9,3.7.3,5.3.9,2.9,1.5,4.1,2.7,2,2.5,2.6,4.1.9,3.3.9,5.3ZM66.4,179.2c0-2.6-.6-4.6-1.7-6.1s-2.7-2.2-4.6-2.2-2.3.3-3.3,1-1.7,1.6-2.2,2.9-.8,2.7-.8,4.4.2,3.1.8,4.4,1.2,2.2,2.2,2.9,2.1,1,3.3,1c1.9,0,3.5-.7,4.6-2.2,1.2-1.5,1.7-3.5,1.7-6.1Z"/>
        <path class="cls-3" d="M83.7,169.7v.8c1.1-1.5,2.4-2.6,3.7-3.3s2.9-1,4.6-1,3.2.4,4.5,1.1,2.3,1.8,3,3.1c.4.8.7,1.6.8,2.5s.2,2.1.2,3.5v11.9c0,1.3-.3,2.2-.9,2.9s-1.3,1-2.3,1-1.7-.3-2.3-1-.9-1.6-.9-2.9v-10.7c0-2.1-.3-3.7-.9-4.8s-1.8-1.7-3.5-1.7-2.2.3-3.1,1-1.6,1.6-2.1,2.8c-.3.9-.5,2.7-.5,5.3v8c0,1.3-.3,2.3-.9,2.9s-1.4,1-2.3,1-1.7-.3-2.3-1-.9-1.6-.9-2.9v-18.5c0-1.2.3-2.1.8-2.7s1.3-.9,2.2-.9,1.1.1,1.5.4.8.7,1.1,1.2.4,1.2.4,1.9Z"/>
        <path class="cls-3" d="M110.7,170.1l5.2,14.5,5.6-15.2c.4-1.2.9-2.1,1.3-2.6s1.1-.8,1.9-.8,1.5.3,2.1.8.9,1.2.9,1.9,0,.6-.2,1-.2.7-.3,1.1-.3.7-.5,1.1l-6.1,15.2c-.2.4-.4,1-.7,1.7s-.6,1.2-.9,1.7-.8.9-1.2,1.1-1.1.4-1.8.4-1.6-.2-2.2-.6-.9-.9-1.2-1.4-.7-1.5-1.3-2.9l-6.1-15.1c-.1-.4-.3-.8-.4-1.1s-.3-.8-.4-1.1-.2-.7-.2-1c0-.4.1-.9.4-1.3s.6-.8,1.1-1.1,1-.4,1.5-.4c1.1,0,1.8.3,2.2.9s.8,1.6,1.3,3.1Z"/>
        <path class="cls-3" d="M149.5,180.7h-12.5c0,1.4.3,2.7.9,3.8s1.3,1.9,2.3,2.5,2,.8,3.1.8,1.5,0,2.1-.3,1.2-.5,1.8-.8,1.1-.8,1.6-1.2,1.1-1,1.9-1.8c.3-.3.8-.4,1.4-.4s1.2.2,1.6.5.6.9.6,1.5-.2,1.2-.7,2-1.1,1.5-2.1,2.2-2.1,1.3-3.4,1.8-3,.7-4.8.7c-4.1,0-7.3-1.2-9.6-3.5s-3.4-5.5-3.4-9.5.3-3.6.8-5.3,1.4-3,2.5-4.2,2.4-2,4-2.7,3.3-.9,5.2-.9,4.6.5,6.4,1.6,3.1,2.4,4,4.1,1.3,3.4,1.3,5.1-.5,2.6-1.4,3.1-2.2.7-3.9.7ZM136.9,177.1h11.6c-.2-2.2-.8-3.8-1.8-4.9s-2.4-1.6-4-1.6-2.9.6-3.9,1.6-1.7,2.7-1.9,4.9Z"/>
        <path class="cls-3" d="M166.5,182.9v5.3c0,1.3-.3,2.3-.9,2.9s-1.4,1-2.3,1-1.7-.3-2.3-1-.9-1.6-.9-2.9v-17.8c0-2.9,1-4.3,3.1-4.3s1.8.3,2.3,1,.7,1.7.8,3c.8-1.3,1.6-2.3,2.4-3s1.9-1,3.2-1,2.6.3,3.9,1,1.9,1.6,1.9,2.7-.3,1.4-.8,1.9-1.1.8-1.8.8-.8-.1-1.7-.4-1.7-.4-2.4-.4-1.7.2-2.3.7-1.1,1.2-1.4,2.2-.6,2.1-.7,3.5-.2,3-.2,4.9Z"/>
        <path class="cls-3" d="M182.1,166.7h.7v-3.8c0-1,0-1.8,0-2.4s.2-1.1.5-1.5c.2-.4.6-.8,1.1-1.1s1-.4,1.6-.4,1.6.3,2.2.9c.4.4.7.9.8,1.5s.2,1.4.2,2.5v4.4h2.3c.9,0,1.6.2,2.1.6s.7,1,.7,1.6-.3,1.5-1,1.8-1.6.5-2.9.5h-1.2v11.8c0,1,0,1.8.1,2.3s.3,1,.6,1.3.8.5,1.5.5.9,0,1.5-.2,1.1-.2,1.5-.2c.5,0,1,.2,1.4.6s.6.9.6,1.5c0,1-.6,1.8-1.7,2.4s-2.7.8-4.9.8-3.5-.3-4.6-1-1.7-1.6-2-2.8-.5-2.8-.5-4.8v-12.3h-.8c-.9,0-1.6-.2-2.1-.7s-.7-1-.7-1.7.2-1.2.8-1.6,1.3-.6,2.2-.6Z"/>
        <path class="cls-3" d="M216.6,180.7h-12.5c0,1.4.3,2.7.9,3.8s1.3,1.9,2.3,2.5,2,.8,3.1.8,1.5,0,2.1-.3,1.2-.5,1.8-.8,1.1-.8,1.6-1.2,1.1-1,1.9-1.8c.3-.3.8-.4,1.4-.4s1.2.2,1.6.5.6.9.6,1.5-.2,1.2-.7,2-1.1,1.5-2.1,2.2-2.1,1.3-3.4,1.8-3,.7-4.8.7c-4.1,0-7.3-1.2-9.6-3.5s-3.4-5.5-3.4-9.5.3-3.6.8-5.3,1.4-3,2.5-4.2,2.4-2,4-2.7,3.3-.9,5.2-.9,4.6.5,6.4,1.6,3.1,2.4,4,4.1,1.3,3.4,1.3,5.1-.5,2.6-1.4,3.1-2.2.7-3.9.7ZM204.1,177.1h11.6c-.2-2.2-.8-3.8-1.8-4.9s-2.4-1.6-4-1.6-2.9.6-3.9,1.6-1.6,2.7-1.9,4.9Z"/>
        <path class="cls-3" d="M233.6,182.9v5.3c0,1.3-.3,2.3-.9,2.9s-1.4,1-2.3,1-1.7-.3-2.3-1-.9-1.6-.9-2.9v-17.8c0-2.9,1-4.3,3.1-4.3s1.8.3,2.3,1,.7,1.7.8,3c.8-1.3,1.6-2.3,2.4-3s1.9-1,3.2-1,2.6.3,3.9,1,1.9,1.6,1.9,2.7-.3,1.4-.8,1.9-1.1.8-1.8.8-.8-.1-1.7-.4-1.7-.4-2.4-.4-1.7.2-2.3.7-1.1,1.2-1.4,2.2-.6,2.1-.7,3.5-.2,3-.2,4.9Z"/>
      </g>
      <g>
        <path class="cls-2" d="M118.1,83.1h-15.8c-.8,0-1.2-.9-.7-1.5l16-17.2c.3-.3.3-.9,0-1.2l-16-17c-.5-.6-.1-1.5.7-1.5h15.8c.3,0,.5.1.7.3l16.7,18.2c.3.3.3.8,0,1.2l-16.7,18.4c-.2.2-.4.3-.7.3Z"/>
        <path class="cls-1" d="M136,83.1h-9.7c-.8,0-1.2-.9-.7-1.5l16-17.2c.3-.3.3-.9,0-1.2l-16-17c-.5-.6-.1-1.5.7-1.5h9.7c.3,0,.5.1.7.3l16.7,18.2c.3.3.3.8,0,1.2l-16.7,18.4c-.2.2-.4.3-.7.3Z"/>
      </g>
      <path class="cls-3" d="M109.8,31.3h-17.8c-2.7,0-4.8-2.2-4.8-4.8V8.6c0-.6.4-1.1.9-1.3.5-.2,1.2,0,1.6.3l21.2,21.2c.4.4.5,1,.3,1.6-.2.5-.7.9-1.3.9ZM90,12.1v14.3c0,1.1.9,1.9,1.9,1.9h14.3l-16.3-16.3Z"/>
      <path class="cls-3" d="M217.6,31.3h-17.8c-2.7,0-4.8-2.2-4.8-4.8V8.6c0-.6.4-1.1.9-1.3.5-.2,1.2,0,1.6.3l21.2,21.2c.4.4.5,1,.3,1.6-.2.5-.7.9-1.3.9ZM197.9,12.1v14.3c0,1.1.9,1.9,1.9,1.9h14.3l-16.3-16.3Z"/>
      <path class="cls-3" d="M218.6,28.8l-21.2-21.2c-.3-.3-.6-.4-1-.4h-45.8c-2.7,0-4.8,2.2-4.8,4.8v37l2.9,3.1V12c0-1.1.9-1.9,1.9-1.9h45.2l20.4,20.4v65.7c0,1.1-.9,1.9-1.9,1.9h-63.6c-1.1,0-1.9-.9-1.9-1.9v-20.7l-2.9,3.2v17.5c0,2.7,2.2,4.8,4.8,4.8h63.6c2.7,0,4.8-2.2,4.8-4.8V29.8c0-.4-.2-.7-.4-1Z"/>
      <path class="cls-3" d="M108.3,86.9v9.2c0,1.1-.9,1.9-1.9,1.9h-63.6c-1.1,0-1.9-.9-1.9-1.9V12c0-1.1.9-1.9,1.9-1.9h45.2l20.4,20.4v10.4h2.9v-11c0-.4-.2-.7-.4-1l-21.2-21.2c-.3-.3-.6-.4-1-.4h-45.8c-2.7,0-4.8,2.2-4.8,4.8v84.1c0,2.7,2.2,4.8,4.8,4.8h63.6c2.7,0,4.8-2.2,4.8-4.8v-9.2h-2.9Z"/>
    </g>
  </g>
</svg>
