<?xml version="1.0" encoding="utf-8"?>
<!-- Generator: Adobe Illustrator 28.0.0, SVG Export Plug-In . SVG Version: 6.00 Build 0)  -->
<svg version="1.1" id="Layer_1" xmlns="http://www.w3.org/2000/svg" xmlns:xlink="http://www.w3.org/1999/xlink" x="0px" y="0px"
	 viewBox="0 0 251 202" enable-background="new 0 0 251 202" xml:space="preserve">
<g>
	<path fill="#193C55" d="M159.65,89.97v-1.6h1.6v1.6H159.65z"/>
	<path fill="#193C55" d="M169.11,88.95c-0.52,0.44-1.02,0.76-1.5,0.94c-0.48,0.18-1,0.27-1.55,0.27c-0.91,0-1.61-0.22-2.1-0.67
		c-0.49-0.45-0.73-1.01-0.73-1.71c0-0.41,0.09-0.78,0.28-1.11c0.18-0.34,0.43-0.61,0.73-0.81c0.3-0.2,0.64-0.36,1.01-0.46
		c0.28-0.07,0.69-0.14,1.25-0.21c1.14-0.14,1.97-0.3,2.51-0.48c0-0.19,0.01-0.31,0.01-0.37c0-0.57-0.13-0.98-0.4-1.21
		c-0.36-0.32-0.89-0.48-1.6-0.48c-0.66,0-1.15,0.12-1.46,0.35c-0.32,0.23-0.55,0.64-0.7,1.23l-1.38-0.19
		c0.12-0.59,0.33-1.06,0.62-1.43c0.29-0.36,0.7-0.64,1.24-0.84c0.54-0.2,1.17-0.29,1.88-0.29c0.71,0,1.28,0.08,1.73,0.25
		c0.44,0.17,0.77,0.38,0.98,0.63c0.21,0.25,0.35,0.57,0.44,0.96c0.05,0.24,0.07,0.67,0.07,1.3v1.88c0,1.31,0.03,2.13,0.09,2.48
		c0.06,0.35,0.18,0.68,0.36,1h-1.47C169.25,89.68,169.15,89.34,169.11,88.95z M169,85.81c-0.51,0.21-1.28,0.39-2.3,0.53
		c-0.58,0.08-0.99,0.18-1.23,0.28c-0.24,0.1-0.42,0.26-0.55,0.46c-0.13,0.2-0.2,0.42-0.2,0.67c0,0.38,0.14,0.69,0.43,0.94
		c0.28,0.25,0.7,0.38,1.25,0.38c0.54,0,1.02-0.12,1.45-0.36c0.42-0.24,0.73-0.56,0.93-0.97c0.15-0.32,0.23-0.79,0.23-1.41V85.81z"/>
	<path fill="#193C55" d="M172.58,89.97v-8.3h1.27v1.26c0.32-0.59,0.62-0.98,0.89-1.16s0.57-0.28,0.9-0.28
		c0.47,0,0.96,0.15,1.45,0.45l-0.48,1.3c-0.34-0.2-0.69-0.3-1.03-0.3c-0.31,0-0.58,0.09-0.83,0.28c-0.25,0.19-0.42,0.44-0.52,0.77
		c-0.16,0.5-0.23,1.05-0.23,1.64v4.34H172.58z"/>
	<path fill="#193C55" d="M177.91,89.97v-8.3h1.27v1.26c0.32-0.59,0.62-0.98,0.89-1.16s0.57-0.28,0.9-0.28
		c0.47,0,0.96,0.15,1.45,0.45l-0.48,1.3c-0.34-0.2-0.69-0.3-1.03-0.3c-0.31,0-0.58,0.09-0.83,0.28c-0.25,0.19-0.42,0.44-0.52,0.77
		c-0.16,0.5-0.23,1.05-0.23,1.64v4.34H177.91z"/>
	<path fill="#193C55" d="M182.73,85.82c0-1.54,0.43-2.67,1.28-3.41c0.71-0.61,1.58-0.92,2.61-0.92c1.14,0,2.07,0.37,2.8,1.12
		c0.72,0.75,1.09,1.78,1.09,3.1c0,1.07-0.16,1.91-0.48,2.52c-0.32,0.61-0.79,1.09-1.4,1.43c-0.61,0.34-1.28,0.51-2,0.51
		c-1.16,0-2.1-0.37-2.82-1.12C183.09,88.3,182.73,87.23,182.73,85.82z M184.18,85.82c0,1.06,0.23,1.86,0.7,2.39
		c0.46,0.53,1.05,0.79,1.75,0.79c0.7,0,1.28-0.27,1.74-0.8c0.46-0.53,0.7-1.34,0.7-2.43c0-1.03-0.23-1.8-0.7-2.33
		c-0.47-0.53-1.05-0.79-1.74-0.79c-0.7,0-1.29,0.26-1.75,0.79C184.41,83.97,184.18,84.76,184.18,85.82z"/>
	<path fill="#193C55" d="M193.68,89.97l-2.54-8.3h1.45l1.32,4.79l0.49,1.78c0.02-0.09,0.16-0.66,0.43-1.71l1.32-4.86h1.45l1.24,4.81
		l0.41,1.59l0.48-1.6l1.42-4.8h1.37l-2.59,8.3h-1.46L197.15,85l-0.32-1.41l-1.68,6.38H193.68z"/>
</g>
<g>
	<g>
		<path fill="none" stroke="#193C55" stroke-width="4" stroke-linejoin="round" stroke-miterlimit="10" d="M89.71,33.85h18.7v-3.71
			L87.47,9.18h-3.72v18.7C83.75,31.17,86.43,33.85,89.71,33.85z"/>
		<path fill="none" stroke="#193C55" stroke-width="4" stroke-linejoin="round" stroke-miterlimit="10" d="M108.41,40.22V30.12
			L87.48,9.18H47.37c-3.65,0-6.63,2.99-6.63,6.63v76.45c0,3.65,2.99,6.63,6.63,6.63h54.41c3.65,0,6.63-2.99,6.63-6.63v-4.83"/>
	</g>
	<g>
		<path fill="#193C55" d="M60.91,89.97v-1.6h1.6v1.6H60.91z"/>
		<path fill="#193C55" d="M64.95,89.97v-8.3h1.27v1.26c0.32-0.59,0.62-0.98,0.89-1.16s0.57-0.28,0.9-0.28
			c0.47,0,0.96,0.15,1.45,0.45l-0.48,1.3c-0.34-0.2-0.69-0.3-1.03-0.3c-0.31,0-0.58,0.09-0.83,0.28c-0.25,0.19-0.42,0.44-0.52,0.77
			c-0.16,0.5-0.23,1.05-0.23,1.64v4.34H64.95z"/>
		<path fill="#193C55" d="M75.7,88.95c-0.52,0.44-1.02,0.76-1.5,0.94s-1,0.27-1.55,0.27c-0.91,0-1.61-0.22-2.1-0.67
			s-0.73-1.01-0.73-1.71c0-0.41,0.09-0.78,0.28-1.11s0.43-0.61,0.73-0.81s0.64-0.36,1.01-0.46c0.28-0.07,0.69-0.14,1.25-0.21
			c1.14-0.14,1.97-0.3,2.51-0.48c0-0.19,0.01-0.31,0.01-0.37c0-0.57-0.13-0.98-0.4-1.21c-0.36-0.32-0.89-0.48-1.6-0.48
			c-0.66,0-1.15,0.12-1.46,0.35c-0.32,0.23-0.55,0.64-0.7,1.23l-1.38-0.19c0.12-0.59,0.33-1.06,0.62-1.43
			c0.29-0.36,0.7-0.64,1.24-0.84s1.17-0.29,1.88-0.29c0.71,0,1.28,0.08,1.73,0.25c0.44,0.17,0.77,0.38,0.98,0.63
			c0.21,0.25,0.35,0.57,0.44,0.96c0.05,0.24,0.07,0.67,0.07,1.3v1.88c0,1.31,0.03,2.13,0.09,2.48c0.06,0.35,0.18,0.68,0.36,1h-1.47
			C75.84,89.68,75.75,89.34,75.7,88.95z M75.59,85.81c-0.51,0.21-1.28,0.39-2.3,0.53c-0.58,0.08-0.99,0.18-1.23,0.28
			c-0.24,0.1-0.42,0.26-0.55,0.46c-0.13,0.2-0.2,0.42-0.2,0.67c0,0.38,0.14,0.69,0.43,0.94s0.7,0.38,1.25,0.38
			c0.54,0,1.02-0.12,1.45-0.36c0.42-0.24,0.73-0.56,0.93-0.97c0.15-0.32,0.23-0.79,0.23-1.41V85.81z"/>
		<path fill="#193C55" d="M80.72,89.97l-2.54-8.3h1.45l1.32,4.79l0.49,1.78c0.02-0.09,0.16-0.66,0.43-1.71l1.32-4.86h1.45l1.24,4.81
			l0.41,1.59l0.48-1.6l1.42-4.8h1.37l-2.59,8.3h-1.46L84.19,85l-0.32-1.41l-1.68,6.38H80.72z"/>
	</g>
</g>
<g>
	<path fill="#193C55" d="M54.05,136.2h-6.38v9.73c0,1.39-0.33,2.45-0.98,3.16s-1.48,1.08-2.48,1.08c-1.05,0-1.89-0.36-2.53-1.07
		s-0.96-1.75-0.96-3.13v-26.48c0-1.53,0.35-2.62,1.05-3.28s1.82-0.98,3.35-0.98h8.93c2.64,0,4.67,0.2,6.09,0.61
		c1.41,0.39,2.62,1.04,3.64,1.95s1.8,2.02,2.33,3.33s0.8,2.79,0.8,4.43c0,3.5-1.08,6.15-3.23,7.96S58.31,136.2,54.05,136.2z
		 M52.36,120.45h-4.69v10.5h4.69c1.64,0,3.01-0.17,4.11-0.52s1.94-0.91,2.52-1.69s0.87-1.8,0.87-3.07c0-1.52-0.45-2.75-1.34-3.7
		C57.52,120.96,55.47,120.45,52.36,120.45z"/>
	<path fill="#193C55" d="M75.52,121.17c-0.89,0-1.65-0.27-2.29-0.82s-0.95-1.32-0.95-2.32c0-0.91,0.32-1.65,0.97-2.24
		s1.4-0.88,2.26-0.88c0.83,0,1.56,0.27,2.2,0.8s0.96,1.3,0.96,2.32c0,0.98-0.31,1.75-0.94,2.31S76.38,121.17,75.52,121.17z
		 M78.68,127.78v18.49c0,1.28-0.3,2.25-0.91,2.91s-1.38,0.98-2.32,0.98s-1.7-0.34-2.29-1.01s-0.88-1.63-0.88-2.88v-18.3
		c0-1.27,0.29-2.22,0.88-2.86s1.35-0.96,2.29-0.96s1.71,0.32,2.32,0.96S78.68,126.64,78.68,127.78z"/>
	<path fill="#193C55" d="M109.24,137.16c0,1.91-0.3,3.66-0.89,5.27s-1.45,2.99-2.58,4.15s-2.47,2.04-4.03,2.66s-3.32,0.93-5.27,0.93
		c-1.94,0-3.68-0.31-5.23-0.94s-2.89-1.52-4.02-2.68s-1.99-2.54-2.58-4.12s-0.88-3.34-0.88-5.26c0-1.94,0.3-3.71,0.89-5.32
		s1.45-2.98,2.55-4.12s2.45-2.02,4.03-2.64s3.32-0.93,5.23-0.93c1.94,0,3.7,0.31,5.27,0.94s2.93,1.52,4.05,2.67s1.98,2.53,2.57,4.12
		S109.24,135.24,109.24,137.16z M102.82,137.16c0-2.61-0.57-4.64-1.72-6.09s-2.69-2.18-4.63-2.18c-1.25,0-2.35,0.32-3.3,0.97
		s-1.69,1.61-2.2,2.87s-0.77,2.74-0.77,4.43c0,1.67,0.25,3.13,0.76,4.38s1.23,2.21,2.18,2.87s2.06,1,3.34,1
		c1.94,0,3.48-0.73,4.63-2.19S102.82,139.74,102.82,137.16z"/>
	<path fill="#193C55" d="M120.09,127.69v0.77c1.12-1.48,2.36-2.57,3.69-3.27s2.87-1.04,4.61-1.04c1.69,0,3.2,0.37,4.52,1.1
		s2.32,1.77,2.98,3.12c0.42,0.78,0.7,1.62,0.82,2.53s0.19,2.06,0.19,3.47v11.91c0,1.28-0.29,2.25-0.88,2.91s-1.35,0.98-2.29,0.98
		c-0.95,0-1.73-0.34-2.32-1.01s-0.89-1.63-0.89-2.88v-10.66c0-2.11-0.29-3.72-0.88-4.84s-1.75-1.68-3.5-1.68
		c-1.14,0-2.18,0.34-3.12,1.02s-1.62,1.61-2.06,2.8c-0.31,0.95-0.47,2.73-0.47,5.34v8.02c0,1.3-0.3,2.27-0.9,2.92
		s-1.38,0.97-2.33,0.97c-0.92,0-1.68-0.34-2.27-1.01s-0.89-1.63-0.89-2.88v-18.49c0-1.22,0.27-2.13,0.8-2.73s1.26-0.9,2.18-0.9
		c0.56,0,1.07,0.13,1.52,0.4s0.82,0.66,1.09,1.2S120.09,126.92,120.09,127.69z"/>
	<path fill="#193C55" d="M161.13,138.73h-12.52c0.02,1.45,0.31,2.73,0.88,3.84s1.33,1.95,2.27,2.51s1.99,0.84,3.13,0.84
		c0.77,0,1.46-0.09,2.1-0.27s1.25-0.46,1.84-0.84s1.14-0.79,1.64-1.23s1.15-1.03,1.95-1.78c0.33-0.28,0.8-0.42,1.41-0.42
		c0.66,0,1.19,0.18,1.59,0.54s0.61,0.87,0.61,1.52c0,0.58-0.23,1.25-0.68,2.03s-1.14,1.52-2.05,2.23s-2.06,1.3-3.45,1.77
		s-2.97,0.7-4.77,0.7c-4.11,0-7.3-1.17-9.59-3.52s-3.42-5.52-3.42-9.54c0-1.89,0.28-3.64,0.84-5.26s1.38-3,2.46-4.16
		s2.41-2.04,3.98-2.66s3.33-0.93,5.25-0.93c2.5,0,4.64,0.53,6.43,1.58s3.13,2.42,4.02,4.09s1.34,3.38,1.34,5.11
		c0,1.61-0.46,2.65-1.38,3.13S162.8,138.73,161.13,138.73z M148.62,135.1h11.6c-0.16-2.19-0.75-3.82-1.77-4.91s-2.37-1.63-4.04-1.63
		c-1.59,0-2.9,0.55-3.93,1.65S148.84,132.94,148.62,135.1z"/>
	<path fill="#193C55" d="M189.66,138.73h-12.52c0.02,1.45,0.31,2.73,0.88,3.84s1.33,1.95,2.27,2.51s1.99,0.84,3.13,0.84
		c0.77,0,1.46-0.09,2.1-0.27s1.25-0.46,1.84-0.84s1.14-0.79,1.64-1.23s1.15-1.03,1.95-1.78c0.33-0.28,0.8-0.42,1.41-0.42
		c0.66,0,1.19,0.18,1.59,0.54s0.61,0.87,0.61,1.52c0,0.58-0.23,1.25-0.68,2.03s-1.14,1.52-2.05,2.23s-2.06,1.3-3.45,1.77
		s-2.97,0.7-4.77,0.7c-4.11,0-7.3-1.17-9.59-3.52s-3.42-5.52-3.42-9.54c0-1.89,0.28-3.64,0.84-5.26s1.38-3,2.46-4.16
		s2.41-2.04,3.98-2.66s3.33-0.93,5.25-0.93c2.5,0,4.64,0.53,6.43,1.58s3.13,2.42,4.02,4.09s1.34,3.38,1.34,5.11
		c0,1.61-0.46,2.65-1.38,3.13S191.33,138.73,189.66,138.73z M177.14,135.1h11.6c-0.16-2.19-0.75-3.82-1.77-4.91
		s-2.37-1.63-4.04-1.63c-1.59,0-2.9,0.55-3.93,1.65S177.36,132.94,177.14,135.1z"/>
	<path fill="#193C55" d="M206.67,140.93v5.34c0,1.3-0.3,2.27-0.91,2.92s-1.38,0.97-2.32,0.97c-0.92,0-1.68-0.33-2.27-0.98
		s-0.89-1.62-0.89-2.91v-17.81c0-2.88,1.04-4.31,3.12-4.31c1.06,0,1.83,0.34,2.3,1.01s0.73,1.66,0.77,2.98
		c0.77-1.31,1.55-2.3,2.36-2.98s1.88-1.01,3.22-1.01s2.65,0.34,3.91,1.01s1.9,1.56,1.9,2.67c0,0.78-0.27,1.43-0.81,1.93
		s-1.12,0.76-1.75,0.76c-0.23,0-0.8-0.14-1.7-0.43s-1.69-0.43-2.38-0.43c-0.94,0-1.7,0.25-2.3,0.74s-1.05,1.22-1.38,2.19
		s-0.55,2.12-0.68,3.46S206.67,139.01,206.67,140.93z"/>
	<path fill="#193C55" d="M43.05,180.73c0,1.09-0.27,2.28-0.81,3.55s-1.39,2.52-2.54,3.75s-2.63,2.22-4.43,2.99s-3.89,1.15-6.28,1.15
		c-1.81,0-3.46-0.17-4.95-0.52s-2.83-0.88-4.04-1.61s-2.32-1.68-3.34-2.87c-0.91-1.08-1.68-2.29-2.32-3.62s-1.12-2.76-1.44-4.28
		s-0.48-3.12-0.48-4.83c0-2.77,0.4-5.24,1.21-7.43s1.96-4.06,3.46-5.61s3.26-2.74,5.27-3.55s4.16-1.22,6.45-1.22
		c2.78,0,5.26,0.55,7.43,1.66s3.84,2.48,4.99,4.11s1.73,3.18,1.73,4.63c0,0.8-0.28,1.5-0.84,2.11s-1.24,0.91-2.04,0.91
		c-0.89,0-1.56-0.21-2-0.63s-0.94-1.15-1.49-2.18c-0.91-1.7-1.97-2.98-3.2-3.82s-2.74-1.27-4.54-1.27c-2.86,0-5.14,1.09-6.83,3.26
		s-2.54,5.26-2.54,9.26c0,2.67,0.38,4.89,1.12,6.67s1.81,3.1,3.19,3.97s2.98,1.31,4.83,1.31c2,0,3.69-0.5,5.07-1.49
		s2.43-2.45,3.13-4.37c0.3-0.91,0.66-1.64,1.1-2.21s1.14-0.86,2.11-0.86c0.83,0,1.54,0.29,2.13,0.87S43.05,179.87,43.05,180.73z"/>
	<path fill="#193C55" d="M72.82,179.16c0,1.91-0.3,3.66-0.89,5.27s-1.45,2.99-2.58,4.15s-2.47,2.04-4.03,2.66s-3.32,0.93-5.27,0.93
		c-1.94,0-3.68-0.31-5.23-0.94s-2.89-1.52-4.02-2.68s-1.99-2.54-2.58-4.12s-0.88-3.34-0.88-5.26c0-1.94,0.3-3.71,0.89-5.32
		s1.45-2.98,2.55-4.12s2.45-2.02,4.03-2.64s3.32-0.93,5.23-0.93c1.94,0,3.7,0.31,5.27,0.94s2.93,1.52,4.05,2.67s1.98,2.53,2.57,4.12
		S72.82,177.24,72.82,179.16z M66.4,179.16c0-2.61-0.57-4.64-1.72-6.09s-2.69-2.18-4.63-2.18c-1.25,0-2.35,0.32-3.3,0.97
		s-1.69,1.61-2.2,2.87s-0.77,2.74-0.77,4.43c0,1.67,0.25,3.13,0.76,4.38s1.23,2.21,2.18,2.87s2.06,1,3.34,1
		c1.94,0,3.48-0.73,4.63-2.19S66.4,181.74,66.4,179.16z"/>
	<path fill="#193C55" d="M83.67,169.69v0.77c1.12-1.48,2.36-2.57,3.69-3.27s2.87-1.04,4.61-1.04c1.69,0,3.2,0.37,4.52,1.1
		s2.32,1.77,2.98,3.12c0.42,0.78,0.7,1.62,0.82,2.53s0.19,2.06,0.19,3.47v11.91c0,1.28-0.29,2.25-0.88,2.91s-1.35,0.98-2.29,0.98
		c-0.95,0-1.73-0.34-2.32-1.01s-0.89-1.63-0.89-2.88v-10.66c0-2.11-0.29-3.72-0.88-4.84s-1.75-1.68-3.5-1.68
		c-1.14,0-2.18,0.34-3.12,1.02s-1.62,1.61-2.06,2.8c-0.31,0.95-0.47,2.73-0.47,5.34v8.02c0,1.3-0.3,2.27-0.9,2.92
		s-1.38,0.97-2.33,0.97c-0.92,0-1.68-0.34-2.27-1.01s-0.89-1.63-0.89-2.88v-18.49c0-1.22,0.27-2.13,0.8-2.73s1.26-0.9,2.18-0.9
		c0.56,0,1.07,0.13,1.52,0.4s0.82,0.66,1.09,1.2S83.67,168.92,83.67,169.69z"/>
	<path fill="#193C55" d="M110.74,170.14l5.18,14.53l5.58-15.16c0.44-1.22,0.87-2.08,1.29-2.59s1.06-0.76,1.92-0.76
		c0.81,0,1.5,0.27,2.07,0.82s0.86,1.18,0.86,1.9c0,0.28-0.05,0.61-0.15,0.98s-0.22,0.73-0.35,1.05s-0.29,0.7-0.46,1.12l-6.14,15.23
		c-0.17,0.44-0.39,0.99-0.67,1.66s-0.58,1.25-0.91,1.72s-0.75,0.85-1.24,1.11s-1.09,0.4-1.79,0.4c-0.91,0-1.63-0.21-2.17-0.62
		s-0.94-0.87-1.2-1.36s-0.69-1.46-1.3-2.92l-6.09-15.07c-0.14-0.38-0.29-0.75-0.43-1.12s-0.27-0.76-0.38-1.15s-0.15-0.73-0.15-1.01
		c0-0.44,0.13-0.87,0.4-1.3s0.63-0.78,1.1-1.05s0.98-0.41,1.52-0.41c1.06,0,1.79,0.3,2.19,0.91S110.26,168.7,110.74,170.14z"/>
	<path fill="#193C55" d="M149.46,180.73h-12.52c0.02,1.45,0.31,2.73,0.88,3.84s1.33,1.95,2.27,2.51s1.99,0.84,3.13,0.84
		c0.77,0,1.46-0.09,2.1-0.27s1.25-0.46,1.84-0.84s1.14-0.79,1.64-1.23s1.15-1.03,1.95-1.78c0.33-0.28,0.8-0.42,1.41-0.42
		c0.66,0,1.19,0.18,1.59,0.54s0.61,0.87,0.61,1.52c0,0.58-0.23,1.25-0.68,2.03s-1.14,1.52-2.05,2.23s-2.06,1.3-3.45,1.77
		s-2.97,0.7-4.77,0.7c-4.11,0-7.3-1.17-9.59-3.52s-3.42-5.52-3.42-9.54c0-1.89,0.28-3.64,0.84-5.26s1.38-3,2.46-4.16
		s2.41-2.04,3.98-2.66s3.33-0.93,5.25-0.93c2.5,0,4.64,0.53,6.43,1.58s3.13,2.42,4.02,4.09s1.34,3.38,1.34,5.11
		c0,1.61-0.46,2.65-1.38,3.13S151.13,180.73,149.46,180.73z M136.95,177.1h11.6c-0.16-2.19-0.75-3.82-1.77-4.91
		s-2.37-1.63-4.04-1.63c-1.59,0-2.9,0.55-3.93,1.65S137.16,174.94,136.95,177.1z"/>
	<path fill="#193C55" d="M166.48,182.93v5.34c0,1.3-0.3,2.27-0.91,2.92s-1.38,0.97-2.32,0.97c-0.92,0-1.68-0.33-2.27-0.98
		s-0.89-1.62-0.89-2.91v-17.81c0-2.88,1.04-4.31,3.12-4.31c1.06,0,1.83,0.34,2.3,1.01s0.73,1.66,0.77,2.98
		c0.77-1.31,1.55-2.3,2.36-2.98s1.88-1.01,3.22-1.01s2.65,0.34,3.91,1.01s1.9,1.56,1.9,2.67c0,0.78-0.27,1.43-0.81,1.93
		s-1.12,0.76-1.75,0.76c-0.23,0-0.8-0.14-1.7-0.43s-1.69-0.43-2.38-0.43c-0.94,0-1.7,0.25-2.3,0.74s-1.05,1.22-1.38,2.19
		s-0.55,2.12-0.68,3.46S166.48,181.01,166.48,182.93z"/>
	<path fill="#193C55" d="M182.09,166.71h0.7v-3.84c0-1.03,0.03-1.84,0.08-2.43s0.21-1.09,0.46-1.51c0.25-0.44,0.61-0.79,1.08-1.07
		s0.99-0.41,1.57-0.41c0.81,0,1.55,0.3,2.2,0.91c0.44,0.41,0.71,0.9,0.83,1.49s0.18,1.42,0.18,2.5v4.36h2.34
		c0.91,0,1.6,0.21,2.07,0.64s0.71,0.98,0.71,1.65c0,0.86-0.34,1.46-1.02,1.8s-1.65,0.52-2.92,0.52h-1.2v11.77
		c0,1,0.04,1.77,0.11,2.31s0.26,0.98,0.56,1.31s0.8,0.5,1.49,0.5c0.38,0,0.88-0.07,1.52-0.2s1.14-0.2,1.5-0.2
		c0.52,0,0.98,0.21,1.39,0.62s0.62,0.93,0.62,1.54c0,1.03-0.56,1.82-1.69,2.37s-2.74,0.82-4.85,0.82c-2,0-3.52-0.34-4.55-1.01
		s-1.71-1.6-2.03-2.79s-0.48-2.77-0.48-4.76v-12.28h-0.84c-0.92,0-1.62-0.22-2.11-0.66s-0.73-0.99-0.73-1.66s0.25-1.22,0.76-1.65
		S181.12,166.71,182.09,166.71z"/>
	<path fill="#193C55" d="M216.59,180.73h-12.52c0.02,1.45,0.31,2.73,0.88,3.84s1.33,1.95,2.27,2.51s1.99,0.84,3.13,0.84
		c0.77,0,1.46-0.09,2.1-0.27s1.25-0.46,1.84-0.84s1.14-0.79,1.64-1.23s1.15-1.03,1.95-1.78c0.33-0.28,0.8-0.42,1.41-0.42
		c0.66,0,1.19,0.18,1.59,0.54s0.61,0.87,0.61,1.52c0,0.58-0.23,1.25-0.68,2.03s-1.14,1.52-2.05,2.23s-2.06,1.3-3.45,1.77
		s-2.97,0.7-4.77,0.7c-4.11,0-7.3-1.17-9.59-3.52s-3.42-5.52-3.42-9.54c0-1.89,0.28-3.64,0.84-5.26s1.38-3,2.46-4.16
		s2.41-2.04,3.98-2.66s3.33-0.93,5.25-0.93c2.5,0,4.64,0.53,6.43,1.58s3.13,2.42,4.02,4.09s1.34,3.38,1.34,5.11
		c0,1.61-0.46,2.65-1.38,3.13S218.26,180.73,216.59,180.73z M204.07,177.1h11.6c-0.16-2.19-0.75-3.82-1.77-4.91
		s-2.37-1.63-4.04-1.63c-1.59,0-2.9,0.55-3.93,1.65S204.29,174.94,204.07,177.1z"/>
	<path fill="#193C55" d="M233.6,182.93v5.34c0,1.3-0.3,2.27-0.91,2.92s-1.38,0.97-2.32,0.97c-0.92,0-1.68-0.33-2.27-0.98
		s-0.89-1.62-0.89-2.91v-17.81c0-2.88,1.04-4.31,3.12-4.31c1.06,0,1.83,0.34,2.3,1.01s0.73,1.66,0.77,2.98
		c0.77-1.31,1.55-2.3,2.36-2.98s1.88-1.01,3.22-1.01s2.65,0.34,3.91,1.01s1.9,1.56,1.9,2.67c0,0.78-0.27,1.43-0.81,1.93
		s-1.12,0.76-1.75,0.76c-0.23,0-0.8-0.14-1.7-0.43s-1.69-0.43-2.38-0.43c-0.94,0-1.7,0.25-2.3,0.74s-1.05,1.22-1.38,2.19
		s-0.55,2.12-0.68,3.46S233.6,181.01,233.6,182.93z"/>
</g>
<g>
	<path fill="#193C55" stroke="#193C55" stroke-linecap="round" stroke-linejoin="round" stroke-miterlimit="10" d="M118.12,83.05
		h-15.85c-0.81,0-1.23-0.92-0.7-1.5l15.98-17.19c0.32-0.34,0.32-0.86,0-1.2L101.6,46.15c-0.54-0.58-0.12-1.5,0.69-1.5h15.84
		c0.27,0,0.52,0.11,0.7,0.3l16.68,18.22c0.31,0.34,0.31,0.84,0,1.18l-16.69,18.38C118.65,82.94,118.39,83.05,118.12,83.05z"/>
	<path fill="#AC1F25" stroke="#AC1F25" stroke-linecap="round" stroke-linejoin="round" stroke-miterlimit="10" d="M136.04,83.05
		h-9.68c-0.81,0-1.23-0.92-0.7-1.5l15.98-17.19c0.32-0.34,0.32-0.86,0-1.2l-15.96-17.02c-0.54-0.58-0.12-1.5,0.69-1.5h9.67
		c0.27,0,0.52,0.11,0.7,0.3l16.68,18.22c0.31,0.34,0.31,0.84,0,1.18l-16.69,18.38C136.56,82.94,136.31,83.05,136.04,83.05z"/>
</g>
<path fill="#193C55" d="M214.26,35.85h-18.7c-4.39,0-7.97-3.57-7.97-7.97V9.18c0-1.1,0.9-2,2-2h3.72c0.53,0,1.04,0.21,1.41,0.59
	l20.95,20.96c0.38,0.38,0.59,0.88,0.59,1.41v3.71C216.26,34.96,215.37,35.85,214.26,35.85z M191.6,11.18v16.7
	c0,2.19,1.78,3.97,3.97,3.97h16.7v-0.89l-19.78-19.78H191.6z"/>
<g>
	<path fill="#193C55" d="M144.59,64.29"/>
	<path fill="#193C55" d="M215.68,28.71L194.75,7.77c-0.38-0.38-0.88-0.59-1.41-0.59h-40.12c-4.76,0-8.63,3.87-8.63,8.63v31.91
		l4,4.37V15.82c0-2.56,2.08-4.63,4.63-4.63h39.29l19.76,19.76v61.32c0,2.56-2.08,4.63-4.63,4.63h-54.41c-2.56,0-4.63-2.08-4.63-4.63
		V75.51l-4,4.41v12.35c0,4.76,3.87,8.63,8.63,8.63h54.41c4.76,0,8.63-3.87,8.63-8.63V30.12C216.26,29.59,216.05,29.08,215.68,28.71z
		"/>
</g>
</svg>
